<svg class="main-svg" xmlns="http://www.w3.org/2000/svg" xmlns:xlink="http://www.w3.org/1999/xlink" width="700" height="500" viewBox="0 0 700 500" style=""><rect x="0" y="0" width="700" height="500" style="fill: rgb(255, 255, 255); fill-opacity: 1;"/><defs id="defs-ffb681"><g class="clips"/><g class="gradients"/><g class="patterns"/></defs><g class="bglayer"/><g class="layer-below"><g class="imagelayer"/><g class="shapelayer"/></g><g class="cartesianlayer"/><g class="polarlayer"/><g class="smithlayer"/><g class="ternarylayer"/><g class="geolayer"/><g class="funnelarealayer"/><g class="pielayer"/><g class="iciclelayer"/><g class="treemaplayer"/><g class="sunburstlayer"/><g class="glimages"/><g class="sankey" transform="translate(80,100)matrix(1 0 0 1 0 0)" style="box-sizing: content-box; position: absolute; left: 0px; shape-rendering: geometricprecision; pointer-events: none;"><g class="sankey-links" style="fill: none;"><path class="sankey-link" d="M20,192.69309989701372C270,192.69309989701372 270,29.721936148300635 520,29.721936148300635L520,29.91246138002051C270,29.91246138002051 270,192.88362512873363 20,192.88362512873363Z" style="stroke: rgb(0, 0, 0); stroke-opacity: 0.2; fill: rgb(0, 0, 0); fill-opacity: 0.2; stroke-width: 1; opacity: 1;"/><path class="sankey-link" d="M20,192.8836251287336C270,192.8836251287336 270,67.20391349124603 520,67.20391349124603L520,67.96601441812552C270,67.96601441812552 270,193.6457260556131 20,193.6457260556131Z" style="stroke: rgb(0, 0, 0); stroke-opacity: 0.2; fill: rgb(0, 0, 0); fill-opacity: 0.2; stroke-width: 1; opacity: 1;"/><path class="sankey-link" d="M20,193.6457260556131C270,193.6457260556131 270,105.44799176107097 520,105.44799176107097L520,111.35427394438713C270,111.35427394438713 270,199.5520082389293 20,199.5520082389293Z" style="stroke: rgb(68, 68, 68); stroke-opacity: 1; fill: rgb(0, 0, 0); fill-opacity: 0.2; stroke-width: 0; opacity: 1;"/><path class="sankey-link" d="M20,199.55200823892926C270,199.55200823892926 270,136.45211122554062 520,136.45211122554062L520,159.12461380020594C270,159.12461380020594 270,222.22451081359458 20,222.22451081359458Z" style="stroke: rgb(68, 68, 68); stroke-opacity: 1; fill: rgb(0, 0, 0); fill-opacity: 0.2; stroke-width: 0; opacity: 1;"/><path class="sankey-link" d="M20,8.419833053281943C270,8.419833053281943 270,-9.059419880941277e-14 520,-9.059419880941277e-14L520,29.721936148300635C270,29.721936148300635 270,38.14176920158267 20,38.14176920158267Z" style="stroke: rgb(68, 68, 68); stroke-opacity: 1; fill: rgb(0, 0, 0); fill-opacity: 0.2; stroke-width: 0; opacity: 1;"/><path class="sankey-link" d="M20,38.14176920158266C270,38.14176920158266 270,83.53759011328518 520,83.53759011328518L520,84.68074150360442C270,84.68074150360442 270,39.28492059190192 20,39.28492059190192Z" style="stroke: rgb(68, 68, 68); stroke-opacity: 1; fill: rgb(0, 0, 0); fill-opacity: 0.2; stroke-width: 0; opacity: 1;"/><path class="sankey-link" d="M20,39.28492059190192C270,39.28492059190192 270,129.40267765190518 520,129.40267765190518L520,131.11740473738408C270,131.11740473738408 270,40.99964767738081 20,40.99964767738081Z" style="stroke: rgb(68, 68, 68); stroke-opacity: 1; fill: rgb(0, 0, 0); fill-opacity: 0.2; stroke-width: 0; opacity: 1;"/><path class="sankey-link" d="M20,254.70133882595297C270,254.70133882595297 270,67.96601441812554 520,67.96601441812554L520,68.53759011328516C270,68.53759011328516 270,255.27291452111263 20,255.27291452111263Z" style="stroke: rgb(0, 0, 0); stroke-opacity: 0.2; fill: rgb(0, 0, 0); fill-opacity: 0.2; stroke-width: 1; opacity: 1;"/><path class="sankey-link" d="M20,276.04016477857914C270,276.04016477857914 270,303.4243048403708 520,303.4243048403708L520,303.8053553038106C270,303.8053553038106 270,276.42121524201895 20,276.42121524201895Z" style="stroke: rgb(0, 0, 0); stroke-opacity: 0.2; fill: rgb(0, 0, 0); fill-opacity: 0.2; stroke-width: 1; opacity: 1;"/><path class="sankey-link" d="M20,255.2729145211126C270,255.2729145211126 270,182.8887744593202 520,182.8887744593202L520,188.98558187435623C270,188.98558187435623 270,261.36972193614866 20,261.36972193614866Z" style="stroke: rgb(68, 68, 68); stroke-opacity: 1; fill: rgb(0, 0, 0); fill-opacity: 0.2; stroke-width: 0; opacity: 1;"/><path class="sankey-link" d="M20,269.1812564366636C270,269.1812564366636 270,234.2276004119465 520,234.2276004119465L520,239.56230690010304C270,239.56230690010304 270,274.5159629248201 20,274.5159629248201Z" style="stroke: rgb(68, 68, 68); stroke-opacity: 1; fill: rgb(0, 0, 0); fill-opacity: 0.2; stroke-width: 0; opacity: 1;"/><path class="sankey-link" d="M20,274.51596292482014C270,274.51596292482014 270,283.85169927909374 520,283.85169927909374L520,285.37590113285273C270,285.37590113285273 270,276.04016477857914 20,276.04016477857914Z" style="stroke: rgb(68, 68, 68); stroke-opacity: 1; fill: rgb(0, 0, 0); fill-opacity: 0.2; stroke-width: 0; opacity: 1;"/><path class="sankey-link" d="M20,261.36972193614866C270,261.36972193614866 270,209.89186405767248 520,209.89186405767248L520,217.70339855818742C270,217.70339855818742 270,269.18125643666355 20,269.18125643666355Z" style="stroke: rgb(68, 68, 68); stroke-opacity: 1; fill: rgb(0, 0, 0); fill-opacity: 0.2; stroke-width: 0; opacity: 1;"/><path class="sankey-link" d="M20,239.5108135942331C270,239.5108135942331 270,303.2337796086509 520,303.2337796086509L520,303.4243048403708C270,303.4243048403708 270,239.701338825953 20,239.701338825953Z" style="stroke: rgb(0, 0, 0); stroke-opacity: 0.2; fill: rgb(0, 0, 0); fill-opacity: 0.2; stroke-width: 1; opacity: 1;"/><path class="sankey-link" d="M20,237.22451081359458C270,237.22451081359458 270,111.35427394438713 520,111.35427394438713L520,113.06900102986603C270,113.06900102986603 270,238.93923789907348 20,238.93923789907348Z" style="stroke: rgb(68, 68, 68); stroke-opacity: 1; fill: rgb(0, 0, 0); fill-opacity: 0.2; stroke-width: 0; opacity: 1;"/><path class="sankey-link" d="M20,238.93923789907348C270,238.93923789907348 270,259.7064881565396 520,259.7064881565396L520,260.2780638516992C270,260.2780638516992 270,239.51081359423313 20,239.51081359423313Z" style="stroke: rgb(0, 0, 0); stroke-opacity: 0.2; fill: rgb(0, 0, 0); fill-opacity: 0.2; stroke-width: 1; opacity: 1;"/><path class="sankey-link" d="M20,303.80535530381053C270,303.80535530381053 270,303.80535530381053 520,303.80535530381053L520,320C270,320 270,320 20,320Z" style="stroke: rgb(68, 68, 68); stroke-opacity: 1; fill: rgb(0, 0, 0); fill-opacity: 0.2; stroke-width: 0; opacity: 1;"/><path class="sankey-link" d="M20,291.42121524201855C270,291.42121524201855 270,113.06900102986602 520,113.06900102986602L520,114.40267765190514C270,114.40267765190514 270,292.75489186405764 20,292.75489186405764Z" style="stroke: rgb(68, 68, 68); stroke-opacity: 1; fill: rgb(0, 0, 0); fill-opacity: 0.2; stroke-width: 0; opacity: 1;"/><path class="sankey-link" d="M20,292.7548918640577C270,292.7548918640577 270,239.56230690010304 520,239.56230690010304L520,242.03913491246144C270,242.03913491246144 270,295.2317198764161 20,295.2317198764161Z" style="stroke: rgb(68, 68, 68); stroke-opacity: 1; fill: rgb(0, 0, 0); fill-opacity: 0.2; stroke-width: 0; opacity: 1;"/><path class="sankey-link" d="M20,295.2317198764161C270,295.2317198764161 270,260.27806385169924 520,260.27806385169924L520,268.85169927909374C270,268.85169927909374 270,303.8053553038106 20,303.8053553038106Z" style="stroke: rgb(68, 68, 68); stroke-opacity: 1; fill: rgb(0, 0, 0); fill-opacity: 0.2; stroke-width: 0; opacity: 1;"/><path class="sankey-link" d="M20,92.57981462409927C270,92.57981462409927 270,44.91246138002049 520,44.91246138002049L520,67.20391349124603C270,67.20391349124603 270,114.87126673532481 20,114.87126673532481Z" style="stroke: rgb(68, 68, 68); stroke-opacity: 1; fill: rgb(0, 0, 0); fill-opacity: 0.2; stroke-width: 0; opacity: 1;"/><path class="sankey-link" d="M20,137.73429454171C270,137.73429454171 270,300.37590113285273 520,300.37590113285273L520,302.28115345005153C270,302.28115345005153 270,139.63954685890874 20,139.63954685890874Z" style="stroke: rgb(68, 68, 68); stroke-opacity: 1; fill: rgb(0, 0, 0); fill-opacity: 0.2; stroke-width: 0; opacity: 1;"/><path class="sankey-link" d="M20,114.87126673532481C270,114.87126673532481 270,84.68074150360444 520,84.68074150360444L520,86.01441812564356C270,86.01441812564356 270,116.20494335736393 20,116.20494335736393Z" style="stroke: rgb(68, 68, 68); stroke-opacity: 1; fill: rgb(0, 0, 0); fill-opacity: 0.2; stroke-width: 0; opacity: 1;"/><path class="sankey-link" d="M20,116.20494335736394C270,116.20494335736394 270,131.11740473738408 520,131.11740473738408L520,136.45211122554062C270,136.45211122554062 270,121.53964984552049 20,121.53964984552049Z" style="stroke: rgb(68, 68, 68); stroke-opacity: 1; fill: rgb(0, 0, 0); fill-opacity: 0.2; stroke-width: 0; opacity: 1;"/><path class="sankey-link" d="M20,121.53964984552049C270,121.53964984552049 270,174.12461380020588 520,174.12461380020588L520,182.88877445932022C270,182.88877445932022 270,130.3038105046348 20,130.3038105046348Z" style="stroke: rgb(68, 68, 68); stroke-opacity: 1; fill: rgb(0, 0, 0); fill-opacity: 0.2; stroke-width: 0; opacity: 1;"/><path class="sankey-link" d="M20,136.21009268795098C270,136.21009268795098 270,232.70339855818747 520,232.70339855818747L520,234.22760041194647C270,234.22760041194647 270,137.73429454170997 20,137.73429454170997Z" style="stroke: rgb(68, 68, 68); stroke-opacity: 1; fill: rgb(0, 0, 0); fill-opacity: 0.2; stroke-width: 0; opacity: 1;"/><path class="sankey-link" d="M20,130.3038105046348C270,130.3038105046348 270,203.9855818743563 520,203.9855818743563L520,209.8918640576725C270,209.8918640576725 270,136.210092687951 20,136.210092687951Z" style="stroke: rgb(68, 68, 68); stroke-opacity: 1; fill: rgb(0, 0, 0); fill-opacity: 0.2; stroke-width: 0; opacity: 1;"/><path class="sankey-link" d="M20,176.74047373841432C270,176.74047373841432 270,302.2811534500515 520,302.2811534500515L520,303.2337796086509C270,303.2337796086509 270,177.69309989701372 20,177.69309989701372Z" style="stroke: rgb(0, 0, 0); stroke-opacity: 0.2; fill: rgb(0, 0, 0); fill-opacity: 0.2; stroke-width: 1; opacity: 1;"/><path class="sankey-link" d="M20,154.63954685890866C270,154.63954685890866 270,86.01441812564357 520,86.01441812564357L520,105.44799176107097C270,105.44799176107097 270,174.07312049433608 20,174.07312049433608Z" style="stroke: rgb(68, 68, 68); stroke-opacity: 1; fill: rgb(0, 0, 0); fill-opacity: 0.2; stroke-width: 0; opacity: 1;"/><path class="sankey-link" d="M20,174.07312049433605C270,174.07312049433605 270,257.03913491246135 520,257.03913491246135L520,259.70648815653965C270,259.70648815653965 270,176.7404737384143 20,176.7404737384143Z" style="stroke: rgb(68, 68, 68); stroke-opacity: 1; fill: rgb(0, 0, 0); fill-opacity: 0.2; stroke-width: 0; opacity: 1;"/></g><g class="sankey-node-set" style="cursor: move;"><g class="sankey-node" transform="translate(0.000,192.693)" style="opacity: 1;"><rect class="node-rect" width="20" height="29.531410916580853" style="stroke-width: 0.5; stroke: rgb(0, 0, 0); stroke-opacity: 1; fill: rgb(0, 0, 255); fill-opacity: 1;"/><text class="node-label" data-notex="1" x="0" y="0" text-anchor="start" transform="translate(23.25,18.265705458290427)" style="cursor: default; font-family: 'Open Sans', verdana, arial, sans-serif; font-size: 10px; fill: rgb(42, 63, 95); fill-opacity: 1; text-shadow: rgb(255, 255, 255) 1px 1px 1px, rgb(255, 255, 255) -1px -1px 1px, rgb(255, 255, 255) 1px -1px 1px, rgb(255, 255, 255) -1px 1px 1px; white-space: pre;">From Betriebshof Müllerstr.</text></g><g class="sankey-node" transform="translate(0.000,8.420)" style="opacity: 1;"><rect class="node-rect" width="20" height="32.57981462409885" style="stroke-width: 0.5; stroke: rgb(0, 0, 0); stroke-opacity: 1; fill: rgb(0, 0, 255); fill-opacity: 1;"/><text class="node-label" data-notex="1" x="0" y="0" text-anchor="start" transform="translate(23.25,19.789907312049426)" style="cursor: default; font-family: 'Open Sans', verdana, arial, sans-serif; font-size: 10px; fill: rgb(42, 63, 95); fill-opacity: 1; text-shadow: rgb(255, 255, 255) 1px 1px 1px, rgb(255, 255, 255) -1px -1px 1px, rgb(255, 255, 255) 1px -1px 1px, rgb(255, 255, 255) -1px 1px 1px; white-space: pre;">From Betriebshof Spandau</text></g><g class="sankey-node" transform="translate(0.000,254.701)" style="opacity: 1;"><rect class="node-rect" width="20" height="21.719876416065574" style="stroke-width: 0.5; stroke: rgb(0, 0, 0); stroke-opacity: 1; fill: rgb(0, 0, 255); fill-opacity: 1;"/><text class="node-label" data-notex="1" x="0" y="0" text-anchor="start" transform="translate(23.25,14.359938208032787)" style="cursor: default; font-family: 'Open Sans', verdana, arial, sans-serif; font-size: 10px; fill: rgb(42, 63, 95); fill-opacity: 1; text-shadow: rgb(255, 255, 255) 1px 1px 1px, rgb(255, 255, 255) -1px -1px 1px, rgb(255, 255, 255) 1px -1px 1px, rgb(255, 255, 255) -1px 1px 1px; white-space: pre;">From Betriebshof Lichtenberg</text></g><g class="sankey-node" transform="translate(0.000,237.225)" style="opacity: 1;"><rect class="node-rect" width="20" height="2.4768280123583963" style="stroke-width: 0.5; stroke: rgb(0, 0, 0); stroke-opacity: 1; fill: rgb(0, 0, 255); fill-opacity: 1;"/><text class="node-label" data-notex="1" x="0" y="0" text-anchor="start" transform="translate(23.25,4.738414006179198)" style="cursor: default; font-family: 'Open Sans', verdana, arial, sans-serif; font-size: 10px; fill: rgb(42, 63, 95); fill-opacity: 1; text-shadow: rgb(255, 255, 255) 1px 1px 1px, rgb(255, 255, 255) -1px -1px 1px, rgb(255, 255, 255) 1px -1px 1px, rgb(255, 255, 255) -1px 1px 1px; white-space: pre;">From Abstellfläche Mariendorf</text></g><g class="sankey-node" transform="translate(0.000,291.421)" style="opacity: 1;"><rect class="node-rect" width="20" height="28.578784757981452" style="stroke-width: 0.5; stroke: rgb(0, 0, 0); stroke-opacity: 1; fill: rgb(0, 0, 255); fill-opacity: 1;"/><text class="node-label" data-notex="1" x="0" y="0" text-anchor="start" transform="translate(23.25,17.789392378990726)" style="cursor: default; font-family: 'Open Sans', verdana, arial, sans-serif; font-size: 10px; fill: rgb(42, 63, 95); fill-opacity: 1; text-shadow: rgb(255, 255, 255) 1px 1px 1px, rgb(255, 255, 255) -1px -1px 1px, rgb(255, 255, 255) 1px -1px 1px, rgb(255, 255, 255) -1px 1px 1px; white-space: pre;">From Betriebshof Britz</text></g><g class="sankey-node" transform="translate(0.000,92.580)" style="opacity: 1;"><rect class="node-rect" width="20" height="47.05973223480939" style="stroke-width: 0.5; stroke: rgb(0, 0, 0); stroke-opacity: 1; fill: rgb(0, 0, 255); fill-opacity: 1;"/><text class="node-label" data-notex="1" x="0" y="0" text-anchor="start" transform="translate(23.25,27.029866117404694)" style="cursor: default; font-family: 'Open Sans', verdana, arial, sans-serif; font-size: 10px; fill: rgb(42, 63, 95); fill-opacity: 1; text-shadow: rgb(255, 255, 255) 1px 1px 1px, rgb(255, 255, 255) -1px -1px 1px, rgb(255, 255, 255) 1px -1px 1px, rgb(255, 255, 255) -1px 1px 1px; white-space: pre;">From Betriebshof Indira-Gandhi-Str.</text></g><g class="sankey-node" transform="translate(0.000,154.640)" style="opacity: 1;"><rect class="node-rect" width="20" height="23.053553038105065" style="stroke-width: 0.5; stroke: rgb(0, 0, 0); stroke-opacity: 1; fill: rgb(0, 0, 255); fill-opacity: 1;"/><text class="node-label" data-notex="1" x="0" y="0" text-anchor="start" transform="translate(23.25,15.026776519052532)" style="cursor: default; font-family: 'Open Sans', verdana, arial, sans-serif; font-size: 10px; fill: rgb(42, 63, 95); fill-opacity: 1; text-shadow: rgb(255, 255, 255) 1px 1px 1px, rgb(255, 255, 255) -1px -1px 1px, rgb(255, 255, 255) 1px -1px 1px, rgb(255, 255, 255) -1px 1px 1px; white-space: pre;">From Betriebshof Cicerostr.</text></g><g class="sankey-node" transform="translate(520.000,-0.000)" style="opacity: 1;"><rect class="node-rect" width="20" height="29.91246138002058" style="stroke-width: 0.5; stroke: rgb(0, 0, 0); stroke-opacity: 1; fill: rgb(0, 0, 255); fill-opacity: 1;"/><text class="node-label" data-notex="1" x="0" y="0" text-anchor="end" transform="translate(-3.25,18.45623069001029)" style="cursor: default; font-family: 'Open Sans', verdana, arial, sans-serif; font-size: 10px; fill: rgb(42, 63, 95); fill-opacity: 1; text-shadow: rgb(255, 255, 255) 1px 1px 1px, rgb(255, 255, 255) -1px -1px 1px, rgb(255, 255, 255) 1px -1px 1px, rgb(255, 255, 255) -1px 1px 1px; white-space: pre;">Betriebshof Spandau</text></g><g class="sankey-node" transform="translate(520.000,44.912)" style="opacity: 1;"><rect class="node-rect" width="20" height="23.625128733264688" style="stroke-width: 0.5; stroke: rgb(0, 0, 0); stroke-opacity: 1; fill: rgb(0, 0, 255); fill-opacity: 1;"/><text class="node-label" data-notex="1" x="0" y="0" text-anchor="end" transform="translate(-3.25,15.312564366632344)" style="cursor: default; font-family: 'Open Sans', verdana, arial, sans-serif; font-size: 10px; fill: rgb(42, 63, 95); fill-opacity: 1; text-shadow: rgb(255, 255, 255) 1px 1px 1px, rgb(255, 255, 255) -1px -1px 1px, rgb(255, 255, 255) 1px -1px 1px, rgb(255, 255, 255) -1px 1px 1px; white-space: pre;">Betriebshof Indira-Gandhi-Str.</text></g><g class="sankey-node" transform="translate(520.000,300.376)" style="opacity: 1;"><rect class="node-rect" width="20" height="19.624098867147268" style="stroke-width: 0.5; stroke: rgb(0, 0, 0); stroke-opacity: 1; fill: rgb(0, 0, 255); fill-opacity: 1;"/><text class="node-label" data-notex="1" x="0" y="0" text-anchor="end" transform="translate(-3.25,13.312049433573634)" style="cursor: default; font-family: 'Open Sans', verdana, arial, sans-serif; font-size: 10px; fill: rgb(42, 63, 95); fill-opacity: 1; text-shadow: rgb(255, 255, 255) 1px 1px 1px, rgb(255, 255, 255) -1px -1px 1px, rgb(255, 255, 255) 1px -1px 1px, rgb(255, 255, 255) -1px 1px 1px; white-space: pre;">Betriebshof Britz</text></g><g class="sankey-node" transform="translate(520.000,83.538)" style="opacity: 1;"><rect class="node-rect" width="20" height="30.865087538620003" style="stroke-width: 0.5; stroke: rgb(0, 0, 0); stroke-opacity: 1; fill: rgb(0, 0, 255); fill-opacity: 1;"/><text class="node-label" data-notex="1" x="0" y="0" text-anchor="end" transform="translate(-3.25,18.93254376931)" style="cursor: default; font-family: 'Open Sans', verdana, arial, sans-serif; font-size: 10px; fill: rgb(42, 63, 95); fill-opacity: 1; text-shadow: rgb(255, 255, 255) 1px 1px 1px, rgb(255, 255, 255) -1px -1px 1px, rgb(255, 255, 255) 1px -1px 1px, rgb(255, 255, 255) -1px 1px 1px; white-space: pre;">Betriebshof Cicerostr.</text></g><g class="sankey-node" transform="translate(520.000,129.403)" style="opacity: 1;"><rect class="node-rect" width="20" height="29.7219361483007" style="stroke-width: 0.5; stroke: rgb(0, 0, 0); stroke-opacity: 1; fill: rgb(0, 0, 255); fill-opacity: 1;"/><text class="node-label" data-notex="1" x="0" y="0" text-anchor="end" transform="translate(-3.25,18.36096807415035)" style="cursor: default; font-family: 'Open Sans', verdana, arial, sans-serif; font-size: 10px; fill: rgb(42, 63, 95); fill-opacity: 1; text-shadow: rgb(255, 255, 255) 1px 1px 1px, rgb(255, 255, 255) -1px -1px 1px, rgb(255, 255, 255) 1px -1px 1px, rgb(255, 255, 255) -1px 1px 1px; white-space: pre;">Betriebshof Müllerstr.</text></g><g class="sankey-node" transform="translate(520.000,174.125)" style="opacity: 1;"><rect class="node-rect" width="20" height="14.860968074150435" style="stroke-width: 0.5; stroke: rgb(0, 0, 0); stroke-opacity: 1; fill: rgb(0, 0, 255); fill-opacity: 1;"/><text class="node-label" data-notex="1" x="0" y="0" text-anchor="end" transform="translate(-3.25,10.930484037075217)" style="cursor: default; font-family: 'Open Sans', verdana, arial, sans-serif; font-size: 10px; fill: rgb(42, 63, 95); fill-opacity: 1; text-shadow: rgb(255, 255, 255) 1px 1px 1px, rgb(255, 255, 255) -1px -1px 1px, rgb(255, 255, 255) 1px -1px 1px, rgb(255, 255, 255) -1px 1px 1px; white-space: pre;">Betriebshof Lichtenberg</text></g><g class="sankey-node" transform="translate(520.000,232.703)" style="opacity: 1;"><rect class="node-rect" width="20" height="9.335736354273877" style="stroke-width: 0.5; stroke: rgb(0, 0, 0); stroke-opacity: 1; fill: rgb(0, 0, 255); fill-opacity: 1;"/><text class="node-label" data-notex="1" x="0" y="0" text-anchor="end" transform="translate(-3.25,8.167868177136938)" style="cursor: default; font-family: 'Open Sans', verdana, arial, sans-serif; font-size: 10px; fill: rgb(42, 63, 95); fill-opacity: 1; text-shadow: rgb(255, 255, 255) 1px 1px 1px, rgb(255, 255, 255) -1px -1px 1px, rgb(255, 255, 255) 1px -1px 1px, rgb(255, 255, 255) -1px 1px 1px; white-space: pre;">Betriebshof Köpenicker Landstraße</text></g><g class="sankey-node" transform="translate(520.000,283.852)" style="opacity: 1;"><rect class="node-rect" width="20" height="1.5242018537589956" style="stroke-width: 0.5; stroke: rgb(0, 0, 0); stroke-opacity: 1; fill: rgb(0, 0, 255); fill-opacity: 1;"/><text class="node-label" data-notex="1" x="0" y="0" text-anchor="end" transform="translate(-3.25,4.262100926879498)" style="cursor: default; font-family: 'Open Sans', verdana, arial, sans-serif; font-size: 10px; fill: rgb(42, 63, 95); fill-opacity: 1; text-shadow: rgb(255, 255, 255) 1px 1px 1px, rgb(255, 255, 255) -1px -1px 1px, rgb(255, 255, 255) 1px -1px 1px, rgb(255, 255, 255) -1px 1px 1px; white-space: pre;">Betriebshof Rummelsburger Landstraße</text></g><g class="sankey-node" transform="translate(520.000,257.039)" style="opacity: 1;"><rect class="node-rect" width="20" height="11.812564366632387" style="stroke-width: 0.5; stroke: rgb(0, 0, 0); stroke-opacity: 1; fill: rgb(0, 0, 255); fill-opacity: 1;"/><text class="node-label" data-notex="1" x="0" y="0" text-anchor="end" transform="translate(-3.25,9.406282183316193)" style="cursor: default; font-family: 'Open Sans', verdana, arial, sans-serif; font-size: 10px; fill: rgb(42, 63, 95); fill-opacity: 1; text-shadow: rgb(255, 255, 255) 1px 1px 1px, rgb(255, 255, 255) -1px -1px 1px, rgb(255, 255, 255) 1px -1px 1px, rgb(255, 255, 255) -1px 1px 1px; white-space: pre;">Betriebshof Säntisstraße</text></g><g class="sankey-node" transform="translate(520.000,203.986)" style="opacity: 1;"><rect class="node-rect" width="20" height="13.71781668383116" style="stroke-width: 0.5; stroke: rgb(0, 0, 0); stroke-opacity: 1; fill: rgb(0, 0, 255); fill-opacity: 1;"/><text class="node-label" data-notex="1" x="0" y="0" text-anchor="end" transform="translate(-3.25,10.35890834191558)" style="cursor: default; font-family: 'Open Sans', verdana, arial, sans-serif; font-size: 10px; fill: rgb(42, 63, 95); fill-opacity: 1; text-shadow: rgb(255, 255, 255) 1px 1px 1px, rgb(255, 255, 255) -1px -1px 1px, rgb(255, 255, 255) 1px -1px 1px, rgb(255, 255, 255) -1px 1px 1px; white-space: pre;">Betriebshof Alt Friedrichsfelde</text></g></g></g><defs id="topdefs-ffb681"><g class="clips"/></defs><g class="layer-above"><g class="imagelayer"/><g class="shapelayer"/></g><g class="infolayer"><g class="g-gtitle"><text class="gtitle" x="35" y="50" text-anchor="start" dy="0em" style="opacity: 1; font-family: 'Open Sans', verdana, arial, sans-serif; font-size: 14px; fill: rgb(42, 63, 95); fill-opacity: 1; white-space: pre;">Changes of Assignment of Depot-Rotation</text></g><g class="first-render"/></g></svg>